<svg width="17" height="19" fill="none" xmlns="http://www.w3.org/2000/svg"><path d="M15.375 1.922h-2.234v-.86a.516.516 0 1 0-1.032 0v.86H4.891v-.86a.516.516 0 1 0-1.032 0v.86H1.625A1.203 1.203 0 0 0 .422 3.125v13.75a1.203 1.203 0 0 0 1.203 1.203h13.75a1.203 1.203 0 0 0 1.203-1.203V3.125a1.203 1.203 0 0 0-1.203-1.203zM1.625 2.953h2.234v.86a.516.516 0 1 0 1.032 0v-.86h7.218v.86a.516.516 0 1 0 1.032 0v-.86h2.234a.172.172 0 0 1 .172.172v2.922H1.453V3.125a.172.172 0 0 1 .172-.172zm13.75 14.094H1.625a.172.172 0 0 1-.172-.172V7.078h14.094v9.797a.171.171 0 0 1-.172.172z" fill=""/></svg>