<svg width="32" height="32" viewBox="0 0 32 32" fill="none" xmlns="http://www.w3.org/2000/svg">
<path d="M30.4923 2.26778C30.479 2.0394 30.3823 1.82387 30.2205 1.66211C30.0588 1.50035 29.8432 1.40362 29.6149 1.39028C17.8869 0.699485 8.50666 4.2157 4.52213 10.7954C1.80873 15.2747 1.91453 20.5661 4.80063 25.7626L1.6018 28.9615C1.51009 29.0469 1.43652 29.15 1.3855 29.2645C1.33448 29.379 1.30704 29.5026 1.30483 29.628C1.30262 29.7533 1.32568 29.8778 1.37263 29.9941C1.41958 30.1103 1.48946 30.2159 1.57811 30.3045C1.66675 30.3932 1.77234 30.4631 1.88858 30.51C2.00482 30.557 2.12932 30.58 2.25466 30.5778C2.38001 30.5756 2.50362 30.5482 2.61813 30.4971C2.73264 30.4461 2.8357 30.3725 2.92116 30.2808L6.11999 27.082C8.80694 28.5741 11.5188 29.324 14.131 29.324C16.5867 29.325 18.9946 28.6454 21.0872 27.3605C27.6669 23.376 31.1816 13.9958 30.4923 2.26778ZM20.1211 25.7611C16.3746 28.0295 11.9311 27.9968 7.49847 25.7004L21.5929 11.606C21.7578 11.429 21.8476 11.195 21.8433 10.9531C21.839 10.7113 21.7411 10.4805 21.57 10.3095C21.399 10.1385 21.1682 10.0405 20.9264 10.0362C20.6846 10.032 20.4505 10.1217 20.2735 10.2866L6.17911 24.3842C3.88268 19.9516 3.84534 15.5158 6.11843 11.7616C9.64709 5.93803 18.0409 2.76876 28.6782 3.21218C29.1139 13.8417 25.9446 22.2371 20.1211 25.7642V25.7611Z" fill="url(#paint0_linear_198_266)"/>
<defs>
<linearGradient id="paint0_linear_198_266" x1="1.30469" y1="30.5779" x2="34.2676" y2="25.5643" gradientUnits="userSpaceOnUse">
<stop stop-color="#70953A"/>
<stop offset="1" stop-color="#A6CB70"/>
</linearGradient>
</defs>
</svg>
