<svg width="16" height="16" viewBox="0 0 16 16" fill="none" xmlns="http://www.w3.org/2000/svg">
<g clip-path="url(#clip0_198_268)">
<path d="M15.2462 1.13395C15.2395 1.01976 15.1911 0.911998 15.1103 0.831117C15.0294 0.750236 14.9216 0.70187 14.8074 0.695202C8.94343 0.349803 4.25333 2.10791 2.26106 5.39775C0.904365 7.6374 0.957264 10.2831 2.40031 12.8814L0.800901 14.4808C0.755043 14.5235 0.718261 14.5751 0.69275 14.6323C0.667239 14.6896 0.653522 14.7514 0.652416 14.814C0.651311 14.8767 0.662839 14.939 0.686314 14.9971C0.70979 15.0552 0.744731 15.108 0.789053 15.1523C0.833375 15.1966 0.88617 15.2316 0.94429 15.2551C1.00241 15.2785 1.06466 15.2901 1.12733 15.289C1.19 15.2879 1.25181 15.2741 1.30906 15.2486C1.36632 15.2231 1.41785 15.1863 1.46058 15.1405L3.05999 13.5411C4.40347 14.2871 5.75939 14.6621 7.06552 14.6621C8.29335 14.6626 9.49729 14.3227 10.5436 13.6803C13.8335 11.688 15.5908 6.99794 15.2462 1.13395ZM10.0605 12.8806C8.18729 14.0148 5.96554 13.9985 3.74923 12.8503L10.7964 5.80305C10.8789 5.71457 10.9238 5.59754 10.9216 5.47662C10.9195 5.3557 10.8705 5.24033 10.785 5.15481C10.6995 5.06929 10.5841 5.02031 10.4632 5.01817C10.3423 5.01604 10.2253 5.06092 10.1368 5.14337L3.08955 12.1921C1.94134 9.97584 1.92267 7.75798 3.05922 5.88084C4.82355 2.96907 9.02045 1.38444 14.3391 1.60615C14.5569 6.92093 12.9723 11.1186 10.0605 12.8822V12.8806Z" fill="url(#paint0_linear_198_268)"/>
</g>
<defs>
<linearGradient id="paint0_linear_198_268" x1="0.652344" y1="15.289" x2="17.1338" y2="12.7822" gradientUnits="userSpaceOnUse">
<stop stop-color="#70953A"/>
<stop offset="1" stop-color="#A6CB70"/>
</linearGradient>
<clipPath id="clip0_198_268">
<rect width="16" height="16" fill="white"/>
</clipPath>
</defs>
</svg>
