<svg width="180" height="180" viewBox="0 0 180 180" fill="none" xmlns="http://www.w3.org/2000/svg">
<path d="M171.519 12.7563C171.444 11.4717 170.9 10.2594 169.99 9.34946C169.081 8.43955 167.868 7.89543 166.584 7.82041C100.614 3.93468 47.8499 23.7134 25.437 60.7241C10.1741 85.9201 10.7692 115.684 27.0035 144.915L9.01014 162.908C8.49423 163.389 8.08044 163.969 7.79344 164.613C7.50644 165.257 7.35212 165.952 7.33968 166.657C7.32724 167.362 7.45694 168.063 7.72104 168.717C7.98513 169.37 8.37822 169.964 8.87684 170.463C9.37547 170.962 9.96942 171.355 10.6233 171.619C11.2771 171.883 11.9774 172.013 12.6825 172C13.3875 171.988 14.0829 171.833 14.727 171.546C15.3711 171.259 15.9508 170.846 16.4315 170.33L34.4249 152.336C49.539 160.729 64.7931 164.947 79.4872 164.947C93.3002 164.953 106.844 161.13 118.616 153.903C155.626 131.49 175.396 78.7262 171.519 12.7563ZM113.181 144.906C92.107 157.666 67.1123 157.482 42.1789 144.565L121.46 65.2837C122.388 64.2883 122.893 62.9717 122.869 61.6114C122.845 60.251 122.293 58.9531 121.331 57.991C120.369 57.0289 119.071 56.4778 117.711 56.4538C116.351 56.4298 115.034 56.9348 114.039 57.8623L34.7575 137.161C21.8401 112.228 21.63 87.2766 34.4162 66.1589C54.2649 33.4015 101.48 15.5744 161.315 18.0686C163.765 77.8598 145.938 125.084 113.181 144.924V144.906Z" fill="url(#paint0_linear_198_265)"/>
<defs>
<linearGradient id="paint0_linear_198_265" x1="7.33886" y1="172.001" x2="192.755" y2="143.799" gradientUnits="userSpaceOnUse">
<stop stop-color="#70953A"/>
<stop offset="1" stop-color="#A6CB70"/>
</linearGradient>
</defs>
</svg>
