<svg width="297" height="297" viewBox="0 0 297 297" fill="none" xmlns="http://www.w3.org/2000/svg">
<path opacity="0.1" d="M296.134 9.77252C295.998 7.45547 295.017 5.26877 293.376 3.62757C291.734 1.98638 289.548 1.00496 287.231 0.869651C168.24 -6.13899 73.0701 29.5356 32.6437 96.2914C5.11394 141.737 6.18735 195.423 35.4693 248.145L3.01448 280.6C2.08394 281.467 1.33758 282.512 0.819919 283.674C0.302259 284.836 0.0239118 286.09 0.00147401 287.362C-0.0209638 288.633 0.212968 289.897 0.689321 291.076C1.16567 292.255 1.87469 293.327 2.77406 294.226C3.67343 295.125 4.74474 295.834 5.92408 296.311C7.10341 296.787 8.36662 297.021 9.63832 296.999C10.91 296.976 12.1642 296.698 13.326 296.18C14.4878 295.662 15.5334 294.916 16.4005 293.986L48.8553 261.531C76.1167 276.669 103.631 284.278 130.134 284.278C155.049 284.288 179.479 277.393 200.711 264.357C267.467 223.931 303.127 128.762 296.134 9.77252ZM190.908 248.129C152.897 271.144 107.814 270.813 62.8412 247.514L205.841 104.515C207.514 102.72 208.425 100.345 208.382 97.8917C208.338 95.438 207.344 93.0969 205.609 91.3617C203.874 89.6264 201.533 88.6324 199.079 88.5891C196.625 88.5458 194.251 89.4566 192.455 91.1296L49.4551 234.16C26.1559 189.187 25.777 144.184 48.8395 106.094C84.6408 47.0099 169.803 14.8554 277.728 19.3542C282.148 127.199 249.993 212.376 190.908 248.161V248.129Z" fill="#FBFFEF"/>
</svg>
