<svg viewBox="0 0 297 297" fill="" xmlns="http://www.w3.org/2000/svg"><path opacity=".1" d="M296.134 9.773A9.476 9.476 0 0 0 287.231.87C168.24-6.14 73.071 29.536 32.644 96.29c-27.53 45.446-26.457 99.132 2.825 151.854L3.014 280.6A9.466 9.466 0 0 0 .69 291.076a9.47 9.47 0 0 0 15.712 2.91l32.454-32.455c27.262 15.138 54.776 22.747 81.279 22.747a134.783 134.783 0 0 0 70.577-19.921c66.756-40.426 102.416-135.595 95.423-254.584zM190.908 248.129c-38.011 23.015-83.094 22.684-128.067-.615l143-142.999a9.472 9.472 0 0 0-13.386-13.385l-143 143.03c-23.3-44.973-23.678-89.976-.615-128.066 35.8-59.084 120.963-91.239 228.888-86.74 4.42 107.845-27.735 193.022-86.82 228.807v-.032z" fill=""/></svg>