<svg viewBox="0 0 176.16 48" fill="none" xmlns="http://www.w3.org/2000/svg"><path d="M41.402 7.647a1.116 1.116 0 0 0-1.049-1.05c-14.026-.825-25.244 3.38-30.01 11.249-3.244 5.357-3.118 11.685.334 17.9L6.85 39.57A1.116 1.116 0 1 0 8.43 41.15l3.826-3.825c3.213 1.784 6.456 2.68 9.58 2.68a15.887 15.887 0 0 0 8.32-2.347c7.868-4.766 12.072-15.984 11.247-30.01zM29 35.744c-4.48 2.713-9.795 2.673-15.096-.073L30.76 18.815a1.117 1.117 0 0 0-1.578-1.578l-16.856 16.86c-2.746-5.301-2.79-10.606-.072-15.096 4.22-6.964 14.258-10.755 26.98-10.224.52 12.712-3.27 22.752-10.234 26.97v-.003z" fill="#70953A"/><path d="M59 11.595h.155l-.381 1.905h-7.656v-.156l.554-.468V2l-.554-.468v-.156h7.31l.38 1.888h-.155l-1.23-1.68h-4.469v4.469h3.291l.572-.884h.155v1.975h-.155l-.572-.883h-3.291v7.032h4.815L59 11.595zm14.944 1.16.554.468v.156h-2.39v-.156l.554-.468V7.472c0-1.824-.618-2.737-1.854-2.737-.67 0-1.252.249-1.749.745-.496.497-.791 1.12-.883 1.87v5.405l.554.468v.156h-2.39v-.156l.554-.468V7.472c0-1.824-.618-2.737-1.854-2.737-.658 0-1.235.231-1.732.693-.485.45-.79 1.028-.918 1.732v5.595l.555.468v.156h-2.39v-.156l.553-.468V5.653l-.554-.363v-.156l1.68-.71h.156V5.74c.982-.878 2.021-1.316 3.118-1.316.254 0 .502.04.745.12.254.07.485.174.693.313.208.127.392.294.554.502.162.196.295.41.398.64.959-1.05 2.085-1.575 3.378-1.575.74 0 1.368.265 1.888.796.52.532.78 1.317.78 2.356v5.18zm9.534 0 .554.468v.156h-1.836v-3.257c-.104.335-.22.659-.347.97-.127.3-.294.612-.502.936a4.042 4.042 0 0 1-.71.814 3.12 3.12 0 0 1-.936.571 3.187 3.187 0 0 1-1.16.208c-.67 0-1.27-.208-1.801-.623-.532-.428-.763-1.005-.693-1.732.034-.45.202-.884.502-1.3a4.59 4.59 0 0 1 1.074-1.09c.416-.301.877-.584 1.386-.85.508-.277.975-.496 1.403-.658.427-.173.814-.329 1.16-.467.347-.139.554-.231.624-.278-.023-.011-.023-.08 0-.207s0-.29-.07-.485a3.274 3.274 0 0 0-.225-.59c-.08-.196-.242-.363-.485-.502a1.587 1.587 0 0 0-.831-.208c-1.051 0-2.223.647-3.516 1.94l-.433-1.143c.508-.335 1.126-.583 1.853-.745.739-.173 1.386-.26 1.94-.26.23 0 .445.012.64.035.197.023.451.098.763.225.323.116.595.278.814.485.22.208.41.526.572.953.173.416.26.912.26 1.49v5.144zm-1.282-3.88V6.883c-.116.058-.34.162-.676.312l-.78.364c-.184.092-.444.23-.779.415a7.153 7.153 0 0 0-.796.485 7.165 7.165 0 0 0-.693.537c-.254.22-.456.44-.607.659-.138.208-.26.45-.363.727a2.215 2.215 0 0 0-.156.814c0 .52.161.965.485 1.334.335.37.768.554 1.299.554.427 0 .826-.138 1.195-.415.381-.29.693-.653.935-1.092a7.03 7.03 0 0 0 .607-1.35c.161-.474.271-.925.329-1.352zm8.137 4.227c.266 0 .462.005.59.017.138 0 .363.011.675.035.312.023.554.063.727.12.174.047.381.122.624.226.254.104.45.225.589.364.138.15.26.34.364.571.103.243.156.514.156.814 0 .786-.341 1.496-1.023 2.131-.67.635-1.512 1.091-2.528 1.368a6.83 6.83 0 0 1-2.962.208c-.612-.08-1.109-.265-1.49-.554-.381-.277-.624-.618-.728-1.022-.092-.404-.005-.872.26-1.403.266-.52.705-1.057 1.317-1.61l.052.016c-.74-.138-1.109-.473-1.109-1.004 0-.37.168-.728.503-1.074.346-.358.71-.658 1.09-.9-.357-.22-.669-.492-.935-.815a3.683 3.683 0 0 1-.588-1.091 4.135 4.135 0 0 1-.208-1.317c0-1.05.346-1.94 1.039-2.667.693-.728 1.588-1.091 2.685-1.091a3.86 3.86 0 0 1 2.13.623l2.27-1.35v1.35l-1.906.295c.266.242.49.52.675.831a3.89 3.89 0 0 1 .554 2.01c0 1.062-.346 1.957-1.038 2.684-.693.716-1.588 1.074-2.685 1.074a3.643 3.643 0 0 1-1.802-.433c-.623.416-.935.756-.935 1.022s.15.427.45.485c.3.058.918.087 1.854.087h1.333zm-1.247 4.936c1.305 0 2.414-.254 3.326-.762.924-.508 1.386-1.085 1.386-1.732a.953.953 0 0 0-.087-.399.814.814 0 0 0-.173-.277.947.947 0 0 0-.33-.19l-.363-.121a3.046 3.046 0 0 0-.45-.052 12.072 12.072 0 0 1-.468-.035h-.468l-3.69-.017a2.537 2.537 0 0 1-.657-.052h.034c-.681.75-1.01 1.391-.987 1.922.035.543.317.965.849 1.265.53.3 1.224.45 2.078.45zm1.525-6.582c.6-.312.998-.9 1.195-1.767.196-.877.133-1.772-.19-2.684-.324-.901-.815-1.554-1.473-1.958-.658-.404-1.293-.45-1.906-.138-.6.335-.998.935-1.195 1.801-.196.866-.132 1.75.19 2.65.324.913.815 1.576 1.473 1.992.67.404 1.305.439 1.906.104zm9.711-7.032c.508-.012.999.08 1.472.277l-.363 1.282c-.682-.728-1.375-1.092-2.079-1.092-.566 0-1.05.237-1.455.71a3.191 3.191 0 0 0-.762 1.56v5.594l.554.468v.156H95.3v-.156l.537-.468V5.653l-.537-.363v-.156l1.68-.71h.156V5.74c.981-.878 2.044-1.316 3.187-1.316zm10.272 7.534.173.139c-.485.508-1.01.89-1.576 1.143-.554.254-1.212.381-1.974.381a5.366 5.366 0 0 1-2.044-.38 4.58 4.58 0 0 1-1.525-1.04 4.804 4.804 0 0 1-.918-1.455 4.408 4.408 0 0 1 0-3.343c.22-.554.526-1.05.918-1.49a4.34 4.34 0 0 1 1.525-1.074 4.974 4.974 0 0 1 2.044-.415c.854 0 1.61.219 2.269.658.658.427.987 1.004.987 1.732 0 .289-.069.572-.208.849a2.602 2.602 0 0 1-.606.78c-.266.242-.537.467-.814.675-.277.196-.635.41-1.074.64a34.727 34.727 0 0 1-2.287 1.126c-.473.22-.819.381-1.039.486.058.115.127.219.208.311l.139.19c.866 1.075 1.928 1.53 3.187 1.37a4.437 4.437 0 0 0 2.615-1.283zm-4.278-7.223a3.19 3.19 0 0 0-1.663 1.005 3.993 3.993 0 0 0-.883 1.767 5.231 5.231 0 0 0 0 2.078c.104.555.283 1.074.537 1.56l.692-.347c.335-.162.578-.277.728-.347.15-.08.369-.196.658-.346.289-.162.508-.289.658-.381l.572-.398c.231-.174.404-.324.52-.45.127-.128.265-.284.415-.468.15-.185.26-.364.329-.537.081-.174.145-.364.191-.572.058-.22.087-.445.087-.676 0-.82-.283-1.385-.849-1.697-.554-.312-1.218-.375-1.992-.19zm14.14 7.223.173.139c-.485.508-1.005.89-1.559 1.143-.554.254-1.218.381-1.992.381a5.37 5.37 0 0 1-2.044-.38 4.565 4.565 0 0 1-1.524-1.04 4.826 4.826 0 0 1-.918-1.438 4.408 4.408 0 0 1 0-3.343c.219-.554.525-1.05.918-1.49.404-.45.912-.814 1.524-1.09a4.978 4.978 0 0 1 2.044-.416c.185 0 .358.005.52.017.162.011.335.035.52.07l.45.051c.104.012.277.04.519.087.243.046.405.075.485.086l.468 1.56h-.138a4.265 4.265 0 0 0-1.629-1.334 3.177 3.177 0 0 0-2.095-.226 2.99 2.99 0 0 0-1.663.97 4.001 4.001 0 0 0-.884 1.802 5.27 5.27 0 0 0 0 2.078c.093.497.249.97.468 1.42.231.451.514.861.849 1.23.335.37.75.653 1.247.85a3.395 3.395 0 0 0 1.645.155 4.308 4.308 0 0 0 2.616-1.282zm3.405.797.554.468v.156h-2.39v-.156l.537-.468V5.653l-.537-.363v-.156l1.68-.71h.156v8.331zm-1.576-10.029c0-.22.075-.41.225-.571a.782.782 0 0 1 .572-.243c.219 0 .41.08.571.243a.781.781 0 0 1 .243.571c0 .22-.081.41-.243.572a.81.81 0 0 1-.571.225.813.813 0 0 1-.572-.225.813.813 0 0 1-.225-.572zm17.206 10.03.554.467v.156h-2.39v-.156l.554-.468V7.472c0-1.824-.618-2.737-1.853-2.737-.67 0-1.253.249-1.75.745-.496.497-.791 1.12-.883 1.87v5.405l.554.468v.156h-2.39v-.156l.554-.468V7.472c0-1.824-.618-2.737-1.853-2.737-.659 0-1.236.231-1.733.693-.485.45-.791 1.028-.918 1.732v5.595l.555.468v.156h-2.391v-.156l.555-.468V5.653l-.555-.363v-.156l1.68-.71h.156V5.74c.982-.878 2.021-1.316 3.118-1.316.254 0 .503.04.745.12.254.07.485.174.693.313.208.127.392.294.554.502.162.196.295.41.399.64.958-1.05 2.084-1.575 3.377-1.575.739 0 1.369.265 1.888.796.52.532.78 1.317.78 2.356v5.18zm10.313-.798.173.139c-.485.508-1.01.89-1.576 1.143-.554.254-1.212.381-1.975.381a5.37 5.37 0 0 1-2.044-.38 4.565 4.565 0 0 1-1.524-1.04 4.804 4.804 0 0 1-.918-1.455 4.408 4.408 0 0 1 0-3.343c.22-.554.526-1.05.918-1.49.404-.45.912-.808 1.524-1.074a4.978 4.978 0 0 1 2.044-.415c.855 0 1.611.219 2.269.658.659.427.988 1.004.988 1.732 0 .289-.069.572-.208.849a2.602 2.602 0 0 1-.606.78c-.266.242-.537.467-.814.675-.278.196-.636.41-1.074.64a34.727 34.727 0 0 1-2.287 1.126c-.473.22-.82.381-1.039.486.058.115.127.219.208.311l.138.19c.866 1.075 1.929 1.53 3.188 1.37a4.437 4.437 0 0 0 2.615-1.283zm-4.278-7.223a3.186 3.186 0 0 0-1.663 1.005 4.005 4.005 0 0 0-.884 1.767 5.268 5.268 0 0 0 0 2.078c.104.555.283 1.074.537 1.56l.693-.347c.335-.162.578-.277.728-.347.15-.08.369-.196.658-.346.289-.162.508-.289.658-.381l.572-.398a3.77 3.77 0 0 0 .519-.45c.127-.128.266-.284.416-.468.15-.185.26-.364.329-.537.081-.174.145-.364.191-.572.058-.22.086-.445.086-.676 0-.82-.283-1.385-.848-1.697-.555-.312-1.219-.375-1.992-.19zm14.278 8.02.555.468v.156h-2.408v-.156l.554-.468V7.472c0-.785-.225-1.438-.675-1.957-.439-.52-1.005-.78-1.698-.78-.716 0-1.322.226-1.819.676-.496.45-.808 1.033-.935 1.75v5.594l.554.468v.156h-2.39v-.156l.554-.468V5.653l-.554-.363v-.156l1.68-.71h.156V5.74c.982-.878 2.056-1.316 3.222-1.316.901 0 1.657.265 2.269.796.623.52.935 1.305.935 2.356v5.18zm3.828-1.472c0 1.34.526 2.01 1.577 2.01v.207c-1.917.08-2.876-.727-2.876-2.425V4.631h-.97v-.207h1.386a2.367 2.367 0 0 1-.589-.381 1.4 1.4 0 0 1-.312-.433 1.92 1.92 0 0 1-.121-.416c-.011-.139 0-.266.035-.381.034-.116.069-.214.104-.295a.825.825 0 0 1 .104-.208l.052-.086 2.251-.19-.19.138a4.89 4.89 0 0 0-.364.364 2.08 2.08 0 0 0-.398.537c-.093.173-.133.386-.122.64.023.254.133.491.329.71h1.542v.208h-1.438v6.652zm4.97-6.444c.6-.277 1.27-.415 2.009-.415.739 0 1.403.138 1.992.415.601.277 1.086.641 1.455 1.092a4.91 4.91 0 0 1 1.143 3.152 4.91 4.91 0 0 1-.294 1.68 4.623 4.623 0 0 1-.849 1.438c-.369.427-.854.774-1.455 1.04-.589.253-1.253.38-1.992.38-.739 0-1.409-.127-2.009-.38-.6-.266-1.085-.613-1.455-1.04a4.662 4.662 0 0 1-.849-1.438 4.91 4.91 0 0 1 0-3.343c.197-.554.48-1.05.849-1.49.37-.45.855-.814 1.455-1.09zm5.231 3.569a5.56 5.56 0 0 0-.537-1.542 5.402 5.402 0 0 0-.901-1.265 3.064 3.064 0 0 0-1.229-.779 2.708 2.708 0 0 0-1.455-.087c-.497.104-.93.324-1.3.659-.357.323-.623.71-.796 1.16-.174.439-.289.93-.347 1.472a5.183 5.183 0 0 0 .104 1.577c.116.554.295 1.08.537 1.576.254.485.554.912.901 1.282.358.358.768.617 1.23.78.473.16.964.184 1.472.069.497-.104.93-.318 1.299-.641.37-.324.641-.71.814-1.161.173-.45.283-.947.329-1.49a5.021 5.021 0 0 0-.121-1.61z" fill="url(#a)"/><path d="M58.142 19.448c-1.12 0-2.109.3-2.969.9-.84.58-1.25 1.439-1.23 2.578 0 .36.04.7.12 1.02.1.3.2.57.3.81.1.24.27.49.51.75l.6.6c.14.14.39.32.75.539l.78.45c.14.08.43.24.87.48.44.22.71.36.81.42.299.16.729.38 1.289.66.58.28 1.03.5 1.35.659.32.16.719.38 1.199.66.48.28.86.54 1.14.78.3.22.62.5.959.84.34.34.59.689.75 1.049.18.34.33.74.45 1.2.14.44.21.92.21 1.439 0 1.24-.36 2.3-1.08 3.179-.72.86-1.63 1.49-2.73 1.89-1.079.379-2.278.569-3.598.569-1.02 0-1.98-.08-2.879-.24-.9-.14-1.56-.27-1.98-.39-.399-.14-.909-.33-1.529-.57l-.84-3.209h.24c1.08 1.54 2.18 2.6 3.3 3.18 1.14.58 2.599.869 4.378.869.86 0 1.64-.15 2.34-.45.719-.32 1.309-.82 1.768-1.5.46-.68.69-1.489.69-2.428 0-.42-.06-.81-.18-1.17-.1-.36-.23-.68-.39-.96-.14-.28-.35-.55-.63-.81-.26-.28-.52-.51-.78-.69-.239-.18-.559-.379-.959-.599-.4-.24-.75-.43-1.05-.57-.28-.14-.66-.32-1.139-.54-.46-.24-.84-.43-1.14-.57-.5-.26-.88-.45-1.14-.57l-1.079-.629c-.48-.28-.86-.52-1.14-.72-.26-.22-.57-.5-.929-.84-.34-.34-.61-.67-.81-.989-.18-.34-.34-.72-.48-1.14-.14-.42-.21-.86-.21-1.32 0-.899.21-1.689.63-2.368.42-.68.97-1.2 1.65-1.56.68-.36 1.36-.62 2.039-.78.7-.18 1.4-.27 2.1-.27 1.259 0 3.168.22 5.727.66l.9 3.24h-.27c-.98-1.34-1.93-2.26-2.849-2.76-.92-.52-2.2-.78-3.839-.78zM81.57 39.21l.96.81v.27h-3.179v-5.639c-.18.58-.38 1.14-.6 1.68-.22.52-.51 1.06-.87 1.619-.36.54-.769 1.01-1.229 1.41-.44.4-.98.73-1.62.99-.619.239-1.289.359-2.008.359-1.16 0-2.2-.36-3.12-1.08-.919-.74-1.319-1.74-1.199-2.999.06-.78.35-1.53.87-2.249.52-.74 1.14-1.37 1.86-1.89.719-.519 1.519-1.009 2.398-1.469.88-.48 1.69-.86 2.43-1.14.74-.3 1.409-.569 2.009-.809.6-.24.96-.4 1.08-.48-.04-.02-.04-.14 0-.36.04-.22 0-.5-.12-.84-.1-.36-.23-.699-.39-1.019-.14-.34-.42-.63-.84-.87-.4-.24-.88-.36-1.44-.36-1.82 0-3.848 1.12-6.087 3.36l-.75-1.98c.88-.58 1.949-1.01 3.209-1.29 1.28-.3 2.399-.45 3.358-.45.4 0 .77.02 1.11.06.34.04.78.17 1.32.39.56.2 1.03.48 1.409.84.38.36.71.91.99 1.65.3.72.45 1.579.45 2.579v8.907zm-2.219-6.718v-3.449c-.2.1-.59.28-1.17.54-.56.26-1.009.47-1.349.63-.32.16-.77.4-1.35.72-.56.3-1.019.58-1.379.84-.36.24-.76.549-1.2.929-.44.38-.79.76-1.049 1.14-.24.36-.45.78-.63 1.259-.18.46-.27.93-.27 1.41 0 .9.28 1.669.84 2.309.58.64 1.33.96 2.25.96.739 0 1.429-.24 2.068-.72.66-.5 1.2-1.13 1.62-1.89.44-.76.79-1.54 1.05-2.339.28-.82.47-1.6.57-2.34zm19.913 6.718.96.81v.27h-3.209v-1.92c-.6.54-1.14.97-1.62 1.29-.459.3-1.029.55-1.709.749-.68.2-1.429.3-2.249.3-1.58 0-2.899-.44-3.958-1.32-1.04-.9-1.56-2.269-1.56-4.108v-8.367l-.96-.63v-.27l2.91-1.23h.27v10.677c0 1.4.35 2.539 1.05 3.419.719.88 1.679 1.32 2.878 1.32 1.12 0 2.11-.27 2.97-.81.859-.54 1.518-1.14 1.978-1.8V26.915l-.96-.63v-.27l2.94-1.23h.27v14.426zm18.251 0 .959.81v.27h-3.178v-.72a8.02 8.02 0 0 1-4.169 1.139c-1.099 0-2.109-.16-3.029-.48-.919-.34-1.689-.78-2.309-1.32-.6-.54-1.11-1.169-1.529-1.889-.42-.72-.73-1.45-.93-2.189-.18-.76-.27-1.53-.27-2.31 0-.779.11-1.539.33-2.278.22-.76.55-1.46.99-2.1a8.34 8.34 0 0 1 1.619-1.739c.64-.5 1.399-.89 2.279-1.17.88-.3 1.839-.45 2.879-.45 1.22 0 2.599.28 4.139.84v-5.428l-.96-.63v-.27l2.909-1.229h.27v21.143zm-2.219-.15V27.244c-1.28-1.38-2.869-2.07-4.769-2.07-1.839 0-3.268.78-4.288 2.34-1.02 1.56-1.27 3.668-.75 6.327.4 2.08 1.23 3.69 2.489 4.829 1.28 1.14 2.719 1.64 4.319 1.5a6.031 6.031 0 0 0 2.999-1.11zm18.843-.06.96.81v.27h-3.179v-5.639c-.22.74-.49 1.44-.81 2.1a10.03 10.03 0 0 1-1.199 1.919c-.5.62-1.12 1.12-1.859 1.5-.74.36-1.56.539-2.46.539a4.926 4.926 0 0 1-3.118-1.08c-.92-.74-1.32-1.739-1.2-2.998.06-.78.35-1.54.87-2.28a7.946 7.946 0 0 1 1.859-1.889 19.59 19.59 0 0 1 2.399-1.47c.88-.48 1.69-.86 2.429-1.14.74-.299 1.41-.559 2.01-.779.599-.24.959-.4 1.079-.48-.04-.02-.04-.14 0-.36.04-.22 0-.5-.12-.84-.1-.36-.23-.699-.39-1.019-.14-.34-.419-.63-.839-.87-.4-.24-.88-.36-1.44-.36-1.819 0-3.848 1.12-6.088 3.36l-.749-1.98c.879-.58 1.949-1.01 3.208-1.29 1.28-.3 2.4-.45 3.359-.45.4 0 .77.02 1.11.06.34.04.78.17 1.319.39.56.2 1.03.48 1.41.84.38.36.71.91.99 1.65.299.72.449 1.58.449 2.579V39zm-2.219-6.718v-3.449c-.2.08-.59.26-1.169.54-.56.26-1.01.47-1.35.63a17.674 17.674 0 0 0-2.729 1.56c-.36.24-.76.549-1.199.929-.44.38-.79.75-1.05 1.11-.24.36-.45.78-.63 1.259-.18.46-.27.94-.27 1.44 0 .88.28 1.649.84 2.309.58.64 1.329.96 2.249.96.74 0 1.43-.24 2.069-.72.66-.5 1.2-1.13 1.62-1.89.44-.76.789-1.54 1.049-2.339.28-.82.47-1.6.57-2.339zm-.989-13.615c.359.52.219.97-.42 1.35-1.44.84-2.919 1.599-4.439 2.279l-.18-.27c.54-.58 1.75-1.7 3.629-3.36.32-.259.59-.369.81-.329.24.02.44.13.6.33zm16.301 6.118h4.168v.27l-2.099 1.23-4.618 12.025.75 1.98h-2.399l-5.489-14.216-1.589-1.02v-.27h5.218v.27l-1.289.87 4.588 11.876 4.468-11.576-1.709-1.17v-.27zm18.803 13.045.299.24c-.839.88-1.749 1.54-2.729 1.98-.959.439-2.099.659-3.418.659-1.28 0-2.459-.22-3.539-.66-1.06-.46-1.939-1.06-2.639-1.8a8.274 8.274 0 0 1-1.59-2.518 7.634 7.634 0 0 1 0-5.788c.38-.96.91-1.82 1.59-2.58.7-.779 1.579-1.399 2.639-1.859 1.08-.48 2.259-.72 3.539-.72 1.479 0 2.789.38 3.928 1.14 1.14.74 1.71 1.74 1.71 3 0 .499-.12.989-.36 1.469-.22.46-.57.91-1.05 1.35-.46.419-.93.809-1.409 1.169-.48.34-1.1.71-1.86 1.11-.759.4-1.399.73-1.919.989-.52.26-1.2.58-2.039.96-.82.38-1.42.66-1.8.84.1.2.22.38.36.54l.24.329c1.5 1.86 3.339 2.65 5.518 2.37 1.78-.24 3.289-.98 4.529-2.22zm-7.408-12.506a5.527 5.527 0 0 0-2.879 1.74c-.76.88-1.269 1.9-1.529 3.059-.24 1.16-.24 2.359 0 3.598.18.96.49 1.86.929 2.7l1.2-.6c.58-.28 1-.48 1.26-.6.259-.14.639-.34 1.139-.6.5-.28.88-.5 1.14-.66.26-.18.59-.41.989-.69.4-.3.7-.56.9-.78.22-.219.46-.489.72-.809.26-.32.45-.63.57-.93.14-.3.249-.63.329-.99.1-.379.15-.769.15-1.169 0-1.42-.489-2.399-1.469-2.939-.96-.54-2.109-.65-3.449-.33zm13.565 13.886.93.81v.27h-4.138v-.27l.959-.81V20.197l-.959-.63v-.27l2.938-1.229h.27v21.143z" fill="url(#b)"/><defs><linearGradient id="a" x1="50.165" y1="17.5" x2="114.09" y2="-54.564" gradientUnits="userSpaceOnUse"><stop stop-color="#031903"/><stop offset="1" stop-color="#384138"/></linearGradient><linearGradient id="b" x1="50.165" y1="47.5" x2="152.911" y2="-17.615" gradientUnits="userSpaceOnUse"><stop stop-color="#031903"/><stop offset="1" stop-color="#384138"/></linearGradient></defs></svg>