<svg width="23" height="22" fill="none" xmlns="http://www.w3.org/2000/svg"><path d="m14.536 10.57-4.125-2.75a.516.516 0 0 0-.802.43v5.5a.516.516 0 0 0 .802.43l4.125-2.75a.516.516 0 0 0 0-.86zm-3.895 2.217V9.213L13.32 11l-2.68 1.787zm9.83-6.771a1.89 1.89 0 0 0-1.14-1.29C16.398 3.592 11.695 3.61 11.5 3.61c-.195 0-4.898-.018-7.834 1.118a1.89 1.89 0 0 0-1.138 1.289c-.219.85-.481 2.406-.481 4.984s.262 4.134.481 4.984a1.89 1.89 0 0 0 1.141 1.29c2.933 1.135 7.635 1.117 7.831 1.117h.061c.594 0 4.984-.038 7.773-1.117a1.891 1.891 0 0 0 1.141-1.29c.22-.848.482-2.4.482-4.984s-.262-4.134-.485-4.984zm-.998 9.71a.859.859 0 0 1-.515.59c-2.75 1.06-7.408 1.043-7.458 1.043-.05 0-4.702.018-7.455-1.046a.86.86 0 0 1-.516-.589c-.207-.79-.45-2.25-.45-4.724 0-2.473.243-3.934.448-4.727a.86.86 0 0 1 .515-.59c2.65-1.02 7.074-1.042 7.437-1.042h.021c.046 0 4.702-.018 7.455 1.045a.86.86 0 0 1 .516.59c.204.79.448 2.25.448 4.727 0 2.476-.241 3.931-.446 4.724z" fill=""/></svg>